<?xml version="1.0" encoding="iso-8859-1"?>
<!-- Generator: Adobe Illustrator 19.0.0, SVG Export Plug-In . SVG Version: 6.00 Build 0)  -->
<svg version="1.1" id="Layer_1" xmlns="http://www.w3.org/2000/svg" xmlns:xlink="http://www.w3.org/1999/xlink" x="0px" y="0px"
	 viewBox="0 0 400 400" style="enable-background:new 0 0 400 400;" xml:space="preserve">
<g>
	<path style="fill:#42210B;" d="M384,384h-80v16h88c4.8,0,8-3.2,8-8v-88h-16V384z"/>
	<path style="fill:#42210B;" d="M392,0h-88v16h80v80h16V8C400,3.2,396.8,0,392,0z"/>
	<path style="fill:#42210B;" d="M16,16h80V0H8C3.2,0,0,3.2,0,8v88h16V16z"/>
	<path style="fill:#42210B;" d="M16,304H0v88c0,4.8,3.2,8,8,8h88v-16H16V304z"/>
	<rect x="48" y="72" style="fill:#42210B;" width="16" height="256"/>
	<rect x="80" y="72" style="fill:#42210B;" width="16" height="176"/>
	<polygon style="fill:#42210B;" points="112,72 112,248 128,248 144,248 144,72 128,72 	"/>
	<rect x="160" y="72" style="fill:#42210B;" width="16" height="176"/>
	<polygon style="fill:#42210B;" points="224,248 224,72 208,72 192,72 192,248 208,248 	"/>
	<rect x="240" y="72" style="fill:#42210B;" width="16" height="176"/>
	<rect x="272" y="72" style="fill:#42210B;" width="16" height="176"/>
	<rect x="304" y="72" style="fill:#42210B;" width="16" height="176"/>
	<rect x="336" y="72" style="fill:#42210B;" width="16" height="256"/>
	<path style="fill:#42210B;" d="M136,264h-32c-4.8,0-8,3.2-8,8v32c0,4.8,3.2,8,8,8h32c4.8,0,8-3.2,8-8v-32
		C144,267.2,140.8,264,136,264z M128,296h-16v-16h16V296z"/>
	<rect x="168" y="264" style="fill:#42210B;" width="16" height="48"/>
	<path style="fill:#42210B;" d="M240,264h-32v16h24v16h-24v16h32c4.8,0,8-3.2,8-8v-32C248,267.2,244.8,264,240,264z"/>
	<path style="fill:#42210B;" d="M304,312v-16v-16v-8h-16v8h-8v-16h-16v24c0,4.8,3.2,8,8,8h16v16H304z"/>
</g>
<g>
</g>
<g>
</g>
<g>
</g>
<g>
</g>
<g>
</g>
<g>
</g>
<g>
</g>
<g>
</g>
<g>
</g>
<g>
</g>
<g>
</g>
<g>
</g>
<g>
</g>
<g>
</g>
<g>
</g>
</svg>
