<?xml version="1.0" encoding="UTF-8" standalone="no"?>
<svg
   xmlns:dc="http://purl.org/dc/elements/1.1/"
   xmlns:svg="http://www.w3.org/2000/svg"
   xmlns="http://www.w3.org/2000/svg"
   viewBox="0 0 56.823128 23.652302"
   version="1.1"
   id="synerPOS-Logo">
  <g
     id="layer1"
     transform="translate(-77.062684,-13.051286)">
    <path
       d="m 114.96059,25.305179 c -0.38164,0.03922 -0.84716,0.109698 -1.30117,0.109698 h -1.14618 l -1.35857,4.26744 h -4.27003 l 3.37293,-10.596252 h 4.30051 c 1.2991,-0.0368 2.3858,-0.05785 3.56414,0.580333 1.07471,0.488388 0.64843,1.36948 0.16381,3.194765 -0.57092,2.150348 -2.50176,2.332771 -3.32544,2.444016 z M 83.117612,19.826071 c 1.2226,0 1.752441,0.191375 2.133203,0.418062 l -0.541569,1.610755 c -0.47279,-0.190895 -1.071544,-0.381889 -1.939934,-0.381889 -0.696995,0 -1.12706,0.226125 -1.283642,0.69143 -0.140524,0.417585 0.03135,0.584952 0.657324,0.728121 l 0.535368,0.107487 c 1.267384,0.27441 1.82089,0.834604 1.274858,2.457215 -0.578153,1.718059 -1.941842,2.64945 -3.929993,2.64945 -1.074062,0 -1.920646,-0.167285 -2.364714,-0.47749 l 0.550354,-1.635042 c 0.597242,0.262478 1.22956,0.453719 2.120801,0.453719 0.856965,0 1.28066,-0.274654 1.441256,-0.751892 0.156582,-0.465305 0.01044,-0.608158 -0.680062,-0.763261 L 80.559628,24.81388 c -1.142303,-0.238621 -1.69627,-0.799757 -1.130163,-2.482019 0.509896,-1.515232 1.745696,-2.50579 3.688147,-2.50579 z m 38.229708,0.891935 c -0.22315,0 -0.41372,0.05709 -0.57154,0.170532 -0.14968,0.109088 -0.31165,0.436425 -0.48524,0.981853 l -1.57458,4.948018 c -0.19582,0.615242 -0.2797,0.994953 -0.25115,1.138949 0.0353,0.143991 0.19502,0.216007 0.47904,0.216007 0.29077,0 0.50325,-0.08327 0.63717,-0.24908 0.13392,-0.165812 0.30008,-0.560453 0.49868,-1.184424 l 1.54978,-4.86947 c 0.15693,-0.49307 0.21279,-0.807312 0.16794,-0.942579 -0.0367,-0.139628 -0.18638,-0.209806 -0.4501,-0.209806 z m -7.39696,0.180868 -0.85783,2.696476 c 0.12032,0.0044 0.22371,0.0067 0.31161,0.0067 0.39221,0 0.68258,-0.06076 0.87023,-0.182935 0.19581,-0.12654 0.35611,-0.386055 0.48111,-0.778764 l 0.27698,-0.871264 c 0.11527,-0.362166 0.10287,-0.597333 -0.0382,-0.706417 -0.1411,-0.109087 -0.48937,-0.163815 -1.04386,-0.163814 z m -17.48007,0.812353 c 1.09691,0 1.57999,0.465637 1.17047,1.682585 l -1.53738,4.569747 h -1.942515 l 1.348755,-4.009058 c 0.16863,-0.501097 0.0192,-0.668176 -0.5178,-0.668176 -0.3085,0 -0.71035,0.107123 -0.970998,0.202571 l -1.505334,4.474663 h -1.953886 l 2.067574,-6.144845 h 1.873784 l -0.18086,0.536918 h 0.0574 c 0.6547,-0.417585 1.34812,-0.644405 2.09083,-0.644405 z m 5.56296,0 c 1.97674,0 2.33062,1.157638 1.6521,3.173966 l -0.17725,0.525033 h -3.63337 c -0.21095,0.966408 0.22238,1.240751 1.21646,1.240751 0.69699,0 1.36283,-0.179108 1.88412,-0.370003 l -0.42168,1.253153 c -0.53797,0.274415 -1.36139,0.548287 -2.44687,0.548287 -2.09099,0 -2.73875,-1.097647 -2.05621,-3.125907 l 0.0527,-0.155029 c 0.63837,-1.897018 2.17036,-3.090251 3.92999,-3.090251 z m 7.18975,0.05064 -0.60823,1.780253 c -0.0591,-0.01746 -0.25054,-0.01705 -0.29301,-0.01705 -0.51417,0 -1,0.118737 -1.37614,0.28577 l -1.39733,4.152718 h -1.95389 l 2.06758,-6.144844 h 1.8743 l -0.24908,0.740007 h 0.0568 c 0.56099,-0.50462 1.33481,-0.790389 1.87896,-0.796851 z m -23.511232,0.05684 h 2.033985 l -0.01189,3.328996 h 0.02274 l 2.273763,-3.328996 h 1.828312 l -4.401282,6.323645 c -0.809442,1.216959 -1.535714,1.575098 -2.792594,1.575098 -0.399917,0 -0.87473,-0.08382 -1.067118,-0.191203 l 0.450102,-1.336353 c 0.193621,0.03579 0.409852,0.07183 0.604097,0.07183 0.537029,0 0.882321,-0.143666 1.16737,-0.549321 l 0.179835,-0.262516 z m 15.872422,1.228866 c -0.4342,0 -0.93415,0.262504 -1.33532,1.21698 h 1.78232 c 0.30112,-0.894822 0.1243,-1.21698 -0.447,-1.21698 z m 31.6735,-0.558835 -3.72222,0.0079 c 0.41583,-1.241717 0.48935,-1.546675 -0.24258,-1.614129 -0.25588,-0.02358 -0.58233,0.09509 -0.82559,0.28351 -0.1727,0.133765 -0.30112,0.340571 -0.38861,0.615466 -0.11249,0.353439 -0.1228,0.6195 -0.031,0.798401 0.0851,0.178901 0.41831,0.394943 1.00045,0.648023 1.66824,0.728693 2.67546,1.326806 3.02049,1.793689 0.34504,0.466888 0.35171,1.21925 0.0212,2.257743 -0.24026,0.754874 -0.55558,1.311348 -0.94671,1.669149 -0.38437,0.357802 -1.00747,0.658953 -1.86965,0.903304 -0.86079,0.239987 -1.79698,0.311841 -2.83834,0.311841 -1.14281,0 -1.99897,-0.17979 -2.72154,-0.459049 -0.40684,-0.15872 -0.68257,-0.360803 -0.8943,-0.569007 0.47903,-0.351975 1.10053,-0.88434 1.40416,-1.525882 l 0.51888,-1.25479 2.04464,-0.03063 -0.42134,1.157637 c -0.12638,0.397073 -0.10012,0.770312 -0.028,0.883759 0.0788,0.113451 0.26066,0.170532 0.54467,0.170532 1.62697,0.04631 1.74334,-1.905423 1.18941,-2.326069 -0.21579,-0.163873 -0.83824,-0.510899 -1.74728,-0.993873 -0.42132,-0.223844 -1.01047,-0.507083 -1.01047,-0.507083 0.65813,-2.223296 1.38287,-3.582553 0.56205,-4.708577 1.56312,-0.625882 3.49634,-0.808543 5.07541,-0.606268 2.09969,0.288741 3.24666,0.708539 2.30633,3.09439 z m -0.8604,0.234342 c -0.0168,-0.0242 0.43712,0.0059 1.06715,-0.01296 1.38668,-3.228708 -0.96718,-3.286905 -2.46742,-3.573256 -2.09593,-3.695317 -5.95698,-6.084139 -10.21917,-6.085578 -4.0605,0.0058 -7.83417,2.094319 -9.99526,5.531962 H 78.851722 c -0.991004,0 -1.789038,0.960454 -1.789038,2.153357 v 7.635709 c 0,1.192903 0.798034,2.153357 1.789038,2.153357 H 110.4007 c 2.0677,3.803251 6.04817,6.173261 10.37715,6.177917 6.53133,1.05e-4 11.82595,-5.294825 11.82615,-11.826151 -8e-4,-0.65859 -0.0568,-1.315558 -0.16714,-1.964412 z m -7.42002,2.171373 c -0.13828,0.506019 -0.32298,0.938356 -0.46425,1.298147 l -0.47366,1.308829 c -0.25877,0.715052 -1.49553,1.568721 -1.52415,1.525107 -0.45878,0.269759 -0.99082,0.486796 -1.60403,0.645438 -0.759,0.196353 -1.60109,0.294556 -2.5275,0.294556 -0.87908,0 -1.64123,-0.09217 -2.28616,-0.275435 -0.63679,-0.187627 -1.109,-0.466784 -1.41697,-0.837675 -0.30796,-0.370893 -0.43343,-0.773921 -0.37569,-1.210262 0.0541,-0.408718 0.23559,-1.105235 0.54364,-2.088245 2.36049,-0.294158 3.16712,-1.004266 3.6717,-2.662067 0.5708,-1.875346 0.81428,-2.988651 -0.19175,-3.385897 0.2396,-0.131003 0.87157,-0.246055 1.04121,-0.287566 0.759,-0.196353 1.6016,-0.294556 2.52802,-0.294556 0.87907,0 1.63698,0.09349 2.27376,0.28112 0.61806,0.175629 1.0794,0.438566 1.38803,0.786515 1.016,0.937357 -0.10951,3.172207 -0.5822,4.901991 z"
       id="pathLogo" />
  </g>
</svg>
